HIERARCHY
ROOT reference
{
  OFFSET 0 0 0
  CHANNELS 6 Xposition Yposition Zposition Zrotation Xrotation Yrotation
  JOINT Hips
  {
    OFFSET 356.501 91.4882 232.072
    CHANNELS 3 Zrotation Xrotation Yrotation
    JOINT RightUpLeg
    {
      OFFSET -9.22368 -1.56954 0.0182318
      CHANNELS 3 Zrotation Xrotation Yrotation
      JOINT RightLeg
      {
        OFFSET 0.0168043 -41.8502 0.039304
        CHANNELS 3 Zrotation Xrotation Yrotation
        JOINT RightFoot
        {
          OFFSET -1.24655 -41.4872 1.84727
          CHANNELS 3 Zrotation Xrotation Yrotation
          End Site
          {
            OFFSET 0 -7.69 17.5
          }
        }
      }
    }
    JOINT LeftUpLeg
    {
      OFFSET 9.32755 -1.5915 0.117934
      CHANNELS 3 Zrotation Xrotation Yrotation
      JOINT LeftLeg
      {
        OFFSET 0.115891 -41.8441 0.138627
        CHANNELS 3 Zrotation Xrotation Yrotation
        JOINT LeftFoot
        {
          OFFSET -0.00258131 -42.0603 -2.16995
          CHANNELS 3 Zrotation Xrotation Yrotation
          End Site
          {
            OFFSET 0 -7.69 17.5
          }
        }
      }
    }
    JOINT Spine
    {
      OFFSET 0.0618908 14.3142 0.263402
      CHANNELS 3 Zrotation Xrotation Yrotation
      JOINT Spine1
      {
        OFFSET 0.00953893 9.71784 0.0772804
        CHANNELS 3 Zrotation Xrotation Yrotation
        JOINT Spine2
        {
          OFFSET 0.0659978 10.1164 -0.109334
          CHANNELS 3 Zrotation Xrotation Yrotation
          JOINT Spine3
          {
            OFFSET 0.00354353 9.7233 0.0181573
            CHANNELS 3 Zrotation Xrotation Yrotation
            JOINT Neck
            {
              OFFSET -0.106539 10.3631 0.143191
              CHANNELS 3 Zrotation Xrotation Yrotation
              JOINT Head
              {
                OFFSET 0.0687213 9.49492 0.178169
                CHANNELS 3 Zrotation Xrotation Yrotation
                End Site
                {
                  OFFSET 0 15.95 0
                }
              }
            }
            JOINT RightShoulder
            {
              OFFSET -3.17341 6.93407 0.0508814
              CHANNELS 3 Zrotation Xrotation Yrotation
              JOINT RightArm
              {
                OFFSET -12.8122 0.02699 0.0058978
                CHANNELS 3 Zrotation Xrotation Yrotation
                JOINT RightForeArm
                {
                  OFFSET -26.4689 -0.0132424 0.0432591
                  CHANNELS 3 Zrotation Xrotation Yrotation
                  JOINT RightHand
                  {
                    OFFSET -25.9762 -0.0747187 0.0544432
                    CHANNELS 3 Zrotation Xrotation Yrotation
                    JOINT RightHandThumb1
                    {
                      OFFSET -2.48905 0.190105 3.12053
                      CHANNELS 3 Zrotation Xrotation Yrotation
                      JOINT RightHandThumb2
                      {
                        OFFSET -3.68274 0 0
                        CHANNELS 3 Zrotation Xrotation Yrotation
                        JOINT RightHandThumb3
                        {
                          OFFSET -2.55832 0 0
                          CHANNELS 3 Zrotation Xrotation Yrotation
                          End Site
                          {
                            OFFSET -2.194 0 0
                          }
                        }
                      }
                    }
                    JOINT RightInHandIndex
                    {
                      OFFSET -3.22368 0.508421 1.97842
                      CHANNELS 3 Zrotation Xrotation Yrotation
                      JOINT RightHandIndex1
                      {
                        OFFSET -5.21684 -0.091368 0.999158
                        CHANNELS 3 Zrotation Xrotation Yrotation
                        JOINT RightHandIndex2
                        {
                          OFFSET -3.61937 0 0
                          CHANNELS 3 Zrotation Xrotation Yrotation
                          JOINT RightHandIndex3
                          {
                            OFFSET -2.0521 0 0
                            CHANNELS 3 Zrotation Xrotation Yrotation
                            End Site
                            {
                              OFFSET -1.805 0 0
                            }
                          }
                        }
                      }
                    }
                    JOINT RightInHandMiddle
                    {
                      OFFSET -3.38211 0.517263 0.756737
                      CHANNELS 3 Zrotation Xrotation Yrotation
                      JOINT RightHandMiddle1
                      {
                        OFFSET -5.17411 -0.084 0.313895
                        CHANNELS 3 Zrotation Xrotation Yrotation
                        JOINT RightHandMiddle2
                        {
                          OFFSET -3.94947 0 0
                          CHANNELS 3 Zrotation Xrotation Yrotation
                          JOINT RightHandMiddle3
                          {
                            OFFSET -2.47579 0 0
                            CHANNELS 3 Zrotation Xrotation Yrotation
                            End Site
                            {
                              OFFSET -1.975 0 0
                            }
                          }
                        }
                      }
                    }
                    JOINT RightInHandRing
                    {
                      OFFSET -3.36516 0.537895 -0.128947
                      CHANNELS 3 Zrotation Xrotation Yrotation
                      JOINT RightHandRing1
                      {
                        OFFSET -4.63474 -0.022105 -0.478947
                        CHANNELS 3 Zrotation Xrotation Yrotation
                        JOINT RightHandRing2
                        {
                          OFFSET -3.44238 0 0
                          CHANNELS 3 Zrotation Xrotation Yrotation
                          JOINT RightHandRing3
                          {
                            OFFSET -2.3881 0 0
                            CHANNELS 3 Zrotation Xrotation Yrotation
                            End Site
                            {
                              OFFSET -1.857 0 0
                            }
                          }
                        }
                      }
                    }
                    JOINT RightInHandPinky
                    {
                      OFFSET -3.16105 0.469368 -1.20179
                      CHANNELS 3 Zrotation Xrotation Yrotation
                      JOINT RightHandPinky1
                      {
                        OFFSET -4.14105 -0.022105 -1.09053
                        CHANNELS 3 Zrotation Xrotation Yrotation
                        JOINT RightHandPinky2
                        {
                          OFFSET -2.75653 0 0
                          CHANNELS 3 Zrotation Xrotation Yrotation
                          JOINT RightHandPinky3
                          {
                            OFFSET -1.74189 0 0
                            CHANNELS 3 Zrotation Xrotation Yrotation
                            End Site
                            {
                              OFFSET -1.645 0 0
                            }
                          }
                        }
                      }
                    }
                  }
                }
              }
            }
            JOINT LeftShoulder
            {
              OFFSET 3.13763 6.93537 0.265461
              CHANNELS 3 Zrotation Xrotation Yrotation
              JOINT LeftArm
              {
                OFFSET 12.4516 -0.0856895 0.350644
                CHANNELS 3 Zrotation Xrotation Yrotation
                JOINT LeftForeArm
                {
                  OFFSET 26.6962 -0.139113 0.0812581
                  CHANNELS 3 Zrotation Xrotation Yrotation
                  JOINT LeftHand
                  {
                    OFFSET 25.9561 0.0264111 -0.243705
                    CHANNELS 3 Zrotation Xrotation Yrotation
                    JOINT LeftHandThumb1
                    {
                      OFFSET 2.48905 0.190105 3.12053
                      CHANNELS 3 Zrotation Xrotation Yrotation
                      JOINT LeftHandThumb2
                      {
                        OFFSET 3.68274 0 0
                        CHANNELS 3 Zrotation Xrotation Yrotation
                        JOINT LeftHandThumb3
                        {
                          OFFSET 2.55832 0 0
                          CHANNELS 3 Zrotation Xrotation Yrotation
                          End Site
                          {
                            OFFSET 2.194 0 0
                          }
                        }
                      }
                    }
                    JOINT LeftInHandIndex
                    {
                      OFFSET 3.22368 0.508421 1.97842
                      CHANNELS 3 Zrotation Xrotation Yrotation
                      JOINT LeftHandIndex1
                      {
                        OFFSET 5.21684 -0.091368 0.999158
                        CHANNELS 3 Zrotation Xrotation Yrotation
                        JOINT LeftHandIndex2
                        {
                          OFFSET 3.61937 0 0
                          CHANNELS 3 Zrotation Xrotation Yrotation
                          JOINT LeftHandIndex3
                          {
                            OFFSET 2.0521 0 0
                            CHANNELS 3 Zrotation Xrotation Yrotation
                            End Site
                            {
                              OFFSET 1.805 0 0
                            }
                          }
                        }
                      }
                    }
                    JOINT LeftInHandMiddle
                    {
                      OFFSET 3.38211 0.517263 0.756737
                      CHANNELS 3 Zrotation Xrotation Yrotation
                      JOINT LeftHandMiddle1
                      {
                        OFFSET 5.17411 -0.084 0.313895
                        CHANNELS 3 Zrotation Xrotation Yrotation
                        JOINT LeftHandMiddle2
                        {
                          OFFSET 3.94947 0 0
                          CHANNELS 3 Zrotation Xrotation Yrotation
                          JOINT LeftHandMiddle3
                          {
                            OFFSET 2.47579 0 0
                            CHANNELS 3 Zrotation Xrotation Yrotation
                            End Site
                            {
                              OFFSET 1.975 0 0
                            }
                          }
                        }
                      }
                    }
                    JOINT LeftInHandRing
                    {
                      OFFSET 3.36516 0.537895 -0.128947
                      CHANNELS 3 Zrotation Xrotation Yrotation
                      JOINT LeftHandRing1
                      {
                        OFFSET 4.63474 -0.022105 -0.478947
                        CHANNELS 3 Zrotation Xrotation Yrotation
                        JOINT LeftHandRing2
                        {
                          OFFSET 3.44238 0 0
                          CHANNELS 3 Zrotation Xrotation Yrotation
                          JOINT LeftHandRing3
                          {
                            OFFSET 2.3881 0 0
                            CHANNELS 3 Zrotation Xrotation Yrotation
                            End Site
                            {
                              OFFSET 1.857 0 0
                            }
                          }
                        }
                      }
                    }
                    JOINT LeftInHandPinky
                    {
                      OFFSET 3.16105 0.469368 -1.20179
                      CHANNELS 3 Zrotation Xrotation Yrotation
                      JOINT LeftHandPinky1
                      {
                        OFFSET 4.14105 -0.022105 -1.09053
                        CHANNELS 3 Zrotation Xrotation Yrotation
                        JOINT LeftHandPinky2
                        {
                          OFFSET 2.75653 0 0
                          CHANNELS 3 Zrotation Xrotation Yrotation
                          JOINT LeftHandPinky3
                          {
                            OFFSET 1.74189 0 0
                            CHANNELS 3 Zrotation Xrotation Yrotation
                            End Site
                            {
                              OFFSET 1.645 0 0
                            }
                          }
                        }
                      }
                    }
                  }
                }
              }
            }
          }
        }
      }
    }
  }
}
MOTION
Frames: 2
Frame Time: 0.00833333
4.500000000000000000e+02 0.000000000000000000e+00 0.000000000000000000e+00 0.000000000000000000e+00 0.000000000000000000e+00 0.000000000000000000e+00 -7.432240765425961182e-02 4.682616279625143041e-03 1.823459158548062717e-02 -9.040284137108024753e-02 3.515727024031679165e-02 1.791069557045854022e-01 4.826360066462880710e-02 6.552390566942378758e-02 -2.557960732997257014e-01 4.700735841726325775e-02 -3.052063038199868614e-02 -1.026396078374578608e-02 -4.813290899651981184e-04 2.619352436138788764e-02 -3.261606195021646282e-02 -1.347418942448556645e-01 -5.063869301099984538e-02 2.401345363930940113e-01 -5.543209207120849448e-03 1.204505237782007160e-01 -2.047290903727868872e-01 -2.653528748762291195e-02 2.741051990387068094e-02 -7.888701588600960379e-02 -7.265320269423891641e-03 2.030206802201345827e-03 -1.963417234412682608e-02 -1.175179273435527673e-02 9.340947758460004056e-04 -3.190622415081573876e-02 2.057887224729124304e-04 1.340922131167839645e-03 1.651992280868894679e-03 9.880901485875601131e-03 -2.738436547501223173e-02 9.663554270205698682e-02 1.045922656412313738e-02 1.433111252921967331e-02 -1.123715582210713451e-02 -1.874065253241412321e-02 -5.259210872245732860e-02 -2.881295419207178729e-02 -2.629015561297138801e-02 1.128877994552425490e-01 6.134946547513943360e-02 7.137494623221098122e-02 -1.458462257919523053e-01 -1.538145601442666432e-01 1.149997916633201667e-01 -6.929746812973806847e-02 1.932364411135448767e-01 0.000000000000000000e+00 0.000000000000000000e+00 0.000000000000000000e+00 -1.961696861177604144e-15 4.337795742924822876e-16 0.000000000000000000e+00 -2.011100772170888157e-15 5.204190243731199098e-16 0.000000000000000000e+00 2.747264129370573742e-16 4.230125853422466852e-16 2.464475524845835754e-16 0.000000000000000000e+00 0.000000000000000000e+00 0.000000000000000000e+00 0.000000000000000000e+00 -1.320934989890006992e-16 -1.504572910084586084e-16 0.000000000000000000e+00 -1.320235310590492353e-15 5.663460035608958932e-16 2.747264129370573742e-16 4.230125853422466852e-16 2.464475524845835754e-16 0.000000000000000000e+00 2.567615714425439551e-15 1.646376811081282694e-16 0.000000000000000000e+00 2.101845402300438766e-15 1.400301606134568697e-16 0.000000000000000000e+00 1.004389482744059199e-15 1.644596974835641909e-15 2.747264129370573742e-16 4.230125853422466852e-16 2.464475524845835754e-16 0.000000000000000000e+00 0.000000000000000000e+00 0.000000000000000000e+00 0.000000000000000000e+00 3.352799256928482113e-16 2.035528476006217766e-15 0.000000000000000000e+00 -1.172421898629199246e-15 1.181989190086774948e-15 2.747264129370573742e-16 4.230125853422466852e-16 2.464475524845835754e-16 0.000000000000000000e+00 0.000000000000000000e+00 0.000000000000000000e+00 0.000000000000000000e+00 5.422124415564399638e-16 -2.250234591965875933e-16 0.000000000000000000e+00 -1.616007581085870237e-16 -2.366671865412679288e-16 -5.418427085337051974e-02 -5.759603070416778603e-02 -1.216087220401392138e-01 7.628487427835822093e-03 2.281106656301298483e-02 3.606466246261866987e-02 -1.998025866791093563e-02 -4.448937911402569417e-02 1.224364904839987944e-01 6.465510025145607131e-02 -8.560826371575637472e-02 1.489143535273084740e-01 0.000000000000000000e+00 0.000000000000000000e+00 0.000000000000000000e+00 -1.632987693982725363e-15 9.085120501194349914e-16 0.000000000000000000e+00 -9.499628176900362408e-16 -3.217873485227448841e-16 0.000000000000000000e+00 7.866577280964807673e-16 -2.484437855089967800e-15 7.246519773967128544e-16 0.000000000000000000e+00 0.000000000000000000e+00 0.000000000000000000e+00 0.000000000000000000e+00 -3.681729760254897245e-16 -4.253515815676481659e-16 0.000000000000000000e+00 1.992456184814917784e-15 3.524268272563763025e-16 7.866577280964807673e-16 -2.484437855089967800e-15 7.246519773967128544e-16 0.000000000000000000e+00 -1.322465227339057231e-15 1.779221788948118295e-16 0.000000000000000000e+00 -9.793300960998620821e-16 9.524921747029435791e-17 0.000000000000000000e+00 2.777290328206777318e-16 -1.983610096328279687e-16 7.866577280964807673e-16 -2.484437855089967800e-15 7.246519773967128544e-16 0.000000000000000000e+00 0.000000000000000000e+00 0.000000000000000000e+00 0.000000000000000000e+00 3.234319906128507811e-15 -6.429884157638312964e-17 0.000000000000000000e+00 8.296089371424620860e-16 2.978856204273353147e-16 7.866577280964807673e-16 -2.484437855089967800e-15 7.246519773967128544e-16 0.000000000000000000e+00 0.000000000000000000e+00 0.000000000000000000e+00 0.000000000000000000e+00 2.080934472502282871e-16 -3.992531830479536790e-16 0.000000000000000000e+00 3.071724047687443022e-15 4.698217061772942388e-16
4.500000000000000000e+02 0.000000000000000000e+00 0.000000000000000000e+00 0.000000000000000000e+00 0.000000000000000000e+00 0.000000000000000000e+00 -6.347038350461112199e-02 1.126246518259403986e-02 6.849744004544215323e-03 -8.036489122388484896e-02 3.568859132844819093e-02 1.139718780217216648e-01 5.761945885333245171e-02 5.236717503889424391e-02 -1.941255468147868590e-01 8.890456033398487501e-02 -3.445842438719885076e-02 -1.708541169577027993e-02 2.005118942709241750e-02 4.681717713465458758e-02 -1.097869718796168001e-02 -1.627442835595249160e-01 -6.437096370639079634e-02 2.811600400792019783e-01 -2.755626746468410257e-02 8.349713670640129815e-02 -2.578710892015672607e-01 -1.340399457343422265e-02 3.108398804923460240e-02 -5.654409980024647370e-02 -3.992022248369326426e-03 4.220599042644803713e-03 -1.430464982524007334e-02 -6.268479572482238242e-03 5.141645436496667179e-03 -2.362816740539994825e-02 -1.287664205621651429e-03 -1.079462474797781603e-03 1.263138776303045305e-03 1.294731202842260183e-02 -4.675135593060498335e-02 1.313472982091543062e-01 -7.426058645359770102e-03 2.158106307082416700e-02 -3.461789043142950856e-02 -1.768391110144151498e-02 -6.096478465769990251e-02 2.603077634244805802e-02 -2.685818757531139300e-01 3.166007531045702400e-04 -1.858538628117700764e-01 1.521588074864191065e-01 -6.942928678708978896e-02 -1.242798761810353925e-01 3.164118605069532464e-02 -5.176097652735597160e-02 1.525127537738697192e-01 0.000000000000000000e+00 0.000000000000000000e+00 0.000000000000000000e+00 -1.342040037353946352e-15 1.254534976470704533e-16 0.000000000000000000e+00 -1.434665955600369138e-15 8.284058640256092061e-16 0.000000000000000000e+00 -4.707279047152444270e-16 4.730197966486716449e-16 1.776695837957341240e-16 0.000000000000000000e+00 0.000000000000000000e+00 0.000000000000000000e+00 0.000000000000000000e+00 -7.089195933227054683e-16 -8.968066832589260774e-16 0.000000000000000000e+00 -1.032984053834235094e-15 5.109369046187223641e-16 -4.707279047152444270e-16 4.730197966486716449e-16 1.776695837957341240e-16 0.000000000000000000e+00 3.226790688172069648e-15 2.918157873703995663e-16 0.000000000000000000e+00 2.314473027429334003e-15 -2.556003302552582230e-16 0.000000000000000000e+00 1.032635017679742808e-15 1.148478982558563124e-15 -4.707279047152444270e-16 4.730197966486716449e-16 1.776695837957341240e-16 0.000000000000000000e+00 0.000000000000000000e+00 0.000000000000000000e+00 0.000000000000000000e+00 1.947986714127470068e-16 1.839887536291697072e-15 0.000000000000000000e+00 -1.821999073974687695e-15 8.253175441844125036e-16 -4.707279047152444270e-16 4.730197966486716449e-16 1.776695837957341240e-16 0.000000000000000000e+00 0.000000000000000000e+00 0.000000000000000000e+00 0.000000000000000000e+00 3.754923708623436741e-16 -2.617568014244797832e-16 0.000000000000000000e+00 -1.171529721016503462e-15 -8.638022925419850862e-16 -1.049340513533745557e-02 -8.967196648924458113e-02 -5.129434507023401119e-02 -1.094587130377586322e-02 2.390986800783705124e-02 -1.948503854020512682e-02 -4.125362398853960749e-02 -7.320851026975599973e-02 4.430459327553706167e-02 6.243678294876683216e-02 -7.125433022102828362e-02 1.567671745514652160e-01 0.000000000000000000e+00 0.000000000000000000e+00 0.000000000000000000e+00 -1.132021875406645037e-15 5.178908545855418127e-16 0.000000000000000000e+00 -9.801853322891498164e-16 -1.077807575870935865e-15 0.000000000000000000e+00 1.349331203642056176e-15 -2.633555589778861134e-15 9.286782889794443831e-16 0.000000000000000000e+00 0.000000000000000000e+00 0.000000000000000000e+00 0.000000000000000000e+00 -7.328158848684420567e-16 -4.907773495480498958e-16 0.000000000000000000e+00 1.948786862645389069e-15 6.149917371145669429e-16 1.349331203642056176e-15 -2.633555589778861134e-15 9.286782889794443831e-16 0.000000000000000000e+00 -2.891643950076428755e-16 2.014442302447969280e-16 0.000000000000000000e+00 -1.813136020682803330e-15 -3.822293718908613456e-16 0.000000000000000000e+00 5.540678002353881563e-16 -5.039348305992419206e-16 1.349331203642056176e-15 -2.633555589778861134e-15 9.286782889794443831e-16 0.000000000000000000e+00 0.000000000000000000e+00 0.000000000000000000e+00 0.000000000000000000e+00 3.517185833825893572e-15 -1.613466125432211145e-16 0.000000000000000000e+00 9.927816004560221874e-16 5.206948292486648180e-16 1.349331203642056176e-15 -2.633555589778861134e-15 9.286782889794443831e-16 0.000000000000000000e+00 0.000000000000000000e+00 0.000000000000000000e+00 0.000000000000000000e+00 6.243974891629975837e-16 -6.096771846743932169e-16 0.000000000000000000e+00 3.317575526911558061e-15 6.374061479340900808e-16
